{
 "asset": {
  "generator": "trees.py + tree_bark.py (Quaternius Stylized Nature, CC0)",
  "version": "2.0"
 },
 "scene": 0,
 "scenes": [
  {
   "name": "Scene",
   "nodes": [
    0
   ]
  }
 ],
 "nodes": [
  {
   "mesh": 0,
   "name": "Pine_5"
  }
 ],
 "meshes": [
  {
   "name": "Pine_5",
   "primitives": [
    {
     "attributes": {
      "POSITION": 0,
      "NORMAL": 1,
      "TEXCOORD_0": 2
     },
     "indices": 3,
     "material": 0
    },
    {
     "attributes": {
      "POSITION": 4,
      "NORMAL": 5,
      "TEXCOORD_0": 6
     },
     "indices": 7,
     "material": 1
    }
   ]
  }
 ],
 "materials": [
  {
   "alphaCutoff": 0.20000000298023224,
   "alphaMode": "MASK",
   "doubleSided": false,
   "name": "Bark_NormalTree",
   "pbrMetallicRoughness": {
    "baseColorTexture": {
     "index": 1
    },
    "metallicFactor": 0
   },
   "normalTexture": {
    "index": 0
   }
  },
  {
   "alphaCutoff": 0.20000000298023224,
   "alphaMode": "MASK",
   "doubleSided": true,
   "name": "Leaves_Pine",
   "pbrMetallicRoughness": {
    "baseColorTexture": {
     "index": 2
    },
    "metallicFactor": 0
   }
  }
 ],
 "textures": [
  {
   "sampler": 0,
   "source": 0
  },
  {
   "sampler": 0,
   "source": 1
  },
  {
   "sampler": 0,
   "source": 2
  }
 ],
 "images": [
  {
   "mimeType": "image/png",
   "name": "Bark_NormalTree_Normal",
   "uri": "Bark_NormalTree_Normal.png"
  },
  {
   "mimeType": "image/png",
   "name": "Bark_NormalTree",
   "uri": "Bark_NormalTree.png"
  },
  {
   "mimeType": "image/png",
   "name": "Leaf_Pine_C",
   "uri": "Leaf_Pine_C.png"
  }
 ],
 "samplers": [
  {
   "magFilter": 9729,
   "minFilter": 9987
  }
 ],
 "buffers": [
  {
   "byteLength": 81840,
   "uri": "Pine_5.bin"
  }
 ],
 "bufferViews": [
  {
   "buffer": 0,
   "byteOffset": 0,
   "byteLength": 2664,
   "target": 34962
  },
  {
   "buffer": 0,
   "byteOffset": 2664,
   "byteLength": 2664,
   "target": 34962
  },
  {
   "buffer": 0,
   "byteOffset": 5328,
   "byteLength": 1776,
   "target": 34962
  },
  {
   "buffer": 0,
   "byteOffset": 7104,
   "byteLength": 4104,
   "target": 34963
  },
  {
   "buffer": 0,
   "byteOffset": 11208,
   "byteLength": 21276,
   "target": 34962
  },
  {
   "buffer": 0,
   "byteOffset": 32484,
   "byteLength": 21276,
   "target": 34962
  },
  {
   "buffer": 0,
   "byteOffset": 53760,
   "byteLength": 14184,
   "target": 34962
  },
  {
   "buffer": 0,
   "byteOffset": 67944,
   "byteLength": 13896,
   "target": 34963
  }
 ],
 "accessors": [
  {
   "bufferView": 0,
   "componentType": 5126,
   "count": 222,
   "type": "VEC3",
   "min": [
    -0.3490217328071594,
    -0.5412155389785767,
    -1.3426026105880737
   ],
   "max": [
    0.5953298211097717,
    8.317333221435547,
    0.3386481702327728
   ]
  },
  {
   "bufferView": 1,
   "componentType": 5126,
   "count": 222,
   "type": "VEC3",
   "min": [
    -0.9396982789039612,
    -0.3936525881290436,
    -0.9866263270378113
   ],
   "max": [
    1.0,
    0.8626615405082703,
    0.9861661791801453
   ]
  },
  {
   "bufferView": 2,
   "componentType": 5126,
   "count": 222,
   "type": "VEC2"
  },
  {
   "bufferView": 3,
   "componentType": 5125,
   "count": 1026,
   "type": "SCALAR"
  },
  {
   "bufferView": 4,
   "componentType": 5126,
   "count": 1773,
   "type": "VEC3",
   "min": [
    -2.987706422805786,
    1.453586220741272,
    -3.7784042358398438
   ],
   "max": [
    3.432434320449829,
    8.48871898651123,
    2.4435970783233643
   ]
  },
  {
   "bufferView": 5,
   "componentType": 5126,
   "count": 1773,
   "type": "VEC3",
   "min": [
    -0.9280235171318054,
    0.2860088646411896,
    -0.9066162109375
   ],
   "max": [
    0.9333110451698303,
    0.996953010559082,
    0.9504777789115906
   ]
  },
  {
   "bufferView": 6,
   "componentType": 5126,
   "count": 1773,
   "type": "VEC2"
  },
  {
   "bufferView": 7,
   "componentType": 5125,
   "count": 3474,
   "type": "SCALAR"
  }
 ]
}