{
 "asset": {
  "generator": "trees.py + tree_bark.py (Quaternius Stylized Nature, CC0)",
  "version": "2.0"
 },
 "scene": 0,
 "scenes": [
  {
   "name": "Scene",
   "nodes": [
    0
   ]
  }
 ],
 "nodes": [
  {
   "mesh": 0,
   "name": "Pine_2"
  }
 ],
 "meshes": [
  {
   "name": "Pine_2",
   "primitives": [
    {
     "attributes": {
      "POSITION": 0,
      "NORMAL": 1,
      "TEXCOORD_0": 2
     },
     "indices": 3,
     "material": 0
    },
    {
     "attributes": {
      "POSITION": 4,
      "NORMAL": 5,
      "TEXCOORD_0": 6
     },
     "indices": 7,
     "material": 1
    }
   ]
  }
 ],
 "materials": [
  {
   "alphaCutoff": 0.20000000298023224,
   "alphaMode": "MASK",
   "doubleSided": false,
   "name": "Bark_NormalTree",
   "pbrMetallicRoughness": {
    "baseColorTexture": {
     "index": 1
    },
    "metallicFactor": 0
   },
   "normalTexture": {
    "index": 0
   }
  },
  {
   "alphaCutoff": 0.20000000298023224,
   "alphaMode": "MASK",
   "doubleSided": true,
   "name": "Leaves_Pine",
   "pbrMetallicRoughness": {
    "baseColorTexture": {
     "index": 2
    },
    "metallicFactor": 0
   }
  }
 ],
 "textures": [
  {
   "sampler": 0,
   "source": 0
  },
  {
   "sampler": 0,
   "source": 1
  },
  {
   "sampler": 0,
   "source": 2
  }
 ],
 "images": [
  {
   "mimeType": "image/png",
   "name": "Bark_NormalTree_Normal",
   "uri": "Bark_NormalTree_Normal.png"
  },
  {
   "mimeType": "image/png",
   "name": "Bark_NormalTree",
   "uri": "Bark_NormalTree.png"
  },
  {
   "mimeType": "image/png",
   "name": "Leaf_Pine_C",
   "uri": "Leaf_Pine_C.png"
  }
 ],
 "samplers": [
  {
   "magFilter": 9729,
   "minFilter": 9987
  }
 ],
 "buffers": [
  {
   "byteLength": 70608,
   "uri": "Pine_2.bin"
  }
 ],
 "bufferViews": [
  {
   "buffer": 0,
   "byteOffset": 0,
   "byteLength": 4800,
   "target": 34962
  },
  {
   "buffer": 0,
   "byteOffset": 4800,
   "byteLength": 4800,
   "target": 34962
  },
  {
   "buffer": 0,
   "byteOffset": 9600,
   "byteLength": 3200,
   "target": 34962
  },
  {
   "buffer": 0,
   "byteOffset": 12800,
   "byteLength": 6648,
   "target": 34963
  },
  {
   "buffer": 0,
   "byteOffset": 19448,
   "byteLength": 15720,
   "target": 34962
  },
  {
   "buffer": 0,
   "byteOffset": 35168,
   "byteLength": 15720,
   "target": 34962
  },
  {
   "buffer": 0,
   "byteOffset": 50888,
   "byteLength": 10480,
   "target": 34962
  },
  {
   "buffer": 0,
   "byteOffset": 61368,
   "byteLength": 9240,
   "target": 34963
  }
 ],
 "accessors": [
  {
   "bufferView": 0,
   "componentType": 5126,
   "count": 400,
   "type": "VEC3",
   "min": [
    -0.8523678183555603,
    -0.48455315828323364,
    -1.884883999824524
   ],
   "max": [
    1.3262991905212402,
    6.869231224060059,
    1.4275672435760498
   ]
  },
  {
   "bufferView": 1,
   "componentType": 5126,
   "count": 400,
   "type": "VEC3",
   "min": [
    -0.9991233348846436,
    -0.9890129566192627,
    -0.9977318048477173
   ],
   "max": [
    1.0,
    0.9966874718666077,
    0.9999983310699463
   ]
  },
  {
   "bufferView": 2,
   "componentType": 5126,
   "count": 400,
   "type": "VEC2"
  },
  {
   "bufferView": 3,
   "componentType": 5125,
   "count": 1662,
   "type": "SCALAR"
  },
  {
   "bufferView": 4,
   "componentType": 5126,
   "count": 1310,
   "type": "VEC3",
   "min": [
    -2.891958236694336,
    1.1175905466079712,
    -2.6936988830566406
   ],
   "max": [
    2.8361265659332275,
    7.141149520874023,
    2.527508020401001
   ]
  },
  {
   "bufferView": 5,
   "componentType": 5126,
   "count": 1310,
   "type": "VEC3",
   "min": [
    -0.9081954956054688,
    0.3093869388103485,
    -0.9200522899627686
   ],
   "max": [
    0.9346312284469604,
    0.9825658798217773,
    0.9103169441223145
   ]
  },
  {
   "bufferView": 6,
   "componentType": 5126,
   "count": 1310,
   "type": "VEC2"
  },
  {
   "bufferView": 7,
   "componentType": 5125,
   "count": 2310,
   "type": "SCALAR"
  }
 ]
}