{
 "asset": {
  "generator": "trees.py + tree_bark.py (Quaternius Stylized Nature, CC0)",
  "version": "2.0"
 },
 "scene": 0,
 "scenes": [
  {
   "name": "Scene",
   "nodes": [
    0
   ]
  }
 ],
 "nodes": [
  {
   "mesh": 0,
   "name": "Pine_3"
  }
 ],
 "meshes": [
  {
   "name": "Pine_3",
   "primitives": [
    {
     "attributes": {
      "POSITION": 0,
      "NORMAL": 1,
      "TEXCOORD_0": 2
     },
     "indices": 3,
     "material": 0
    },
    {
     "attributes": {
      "POSITION": 4,
      "NORMAL": 5,
      "TEXCOORD_0": 6
     },
     "indices": 7,
     "material": 1
    }
   ]
  }
 ],
 "materials": [
  {
   "alphaCutoff": 0.20000000298023224,
   "alphaMode": "MASK",
   "doubleSided": false,
   "name": "Bark_NormalTree",
   "pbrMetallicRoughness": {
    "baseColorTexture": {
     "index": 1
    },
    "metallicFactor": 0
   },
   "normalTexture": {
    "index": 0
   }
  },
  {
   "alphaCutoff": 0.20000000298023224,
   "alphaMode": "MASK",
   "doubleSided": true,
   "name": "Leaves_Pine",
   "pbrMetallicRoughness": {
    "baseColorTexture": {
     "index": 2
    },
    "metallicFactor": 0
   }
  }
 ],
 "textures": [
  {
   "sampler": 0,
   "source": 0
  },
  {
   "sampler": 0,
   "source": 1
  },
  {
   "sampler": 0,
   "source": 2
  }
 ],
 "images": [
  {
   "mimeType": "image/png",
   "name": "Bark_NormalTree_Normal",
   "uri": "Bark_NormalTree_Normal.png"
  },
  {
   "mimeType": "image/png",
   "name": "Bark_NormalTree",
   "uri": "Bark_NormalTree.png"
  },
  {
   "mimeType": "image/png",
   "name": "Leaf_Pine_C",
   "uri": "Leaf_Pine_C.png"
  }
 ],
 "samplers": [
  {
   "magFilter": 9729,
   "minFilter": 9987
  }
 ],
 "buffers": [
  {
   "byteLength": 57024,
   "uri": "Pine_3.bin"
  }
 ],
 "bufferViews": [
  {
   "buffer": 0,
   "byteOffset": 0,
   "byteLength": 6408,
   "target": 34962
  },
  {
   "buffer": 0,
   "byteOffset": 6408,
   "byteLength": 6408,
   "target": 34962
  },
  {
   "buffer": 0,
   "byteOffset": 12816,
   "byteLength": 4272,
   "target": 34962
  },
  {
   "buffer": 0,
   "byteOffset": 17088,
   "byteLength": 8760,
   "target": 34963
  },
  {
   "buffer": 0,
   "byteOffset": 25848,
   "byteLength": 9612,
   "target": 34962
  },
  {
   "buffer": 0,
   "byteOffset": 35460,
   "byteLength": 9612,
   "target": 34962
  },
  {
   "buffer": 0,
   "byteOffset": 45072,
   "byteLength": 6408,
   "target": 34962
  },
  {
   "buffer": 0,
   "byteOffset": 51480,
   "byteLength": 5544,
   "target": 34963
  }
 ],
 "accessors": [
  {
   "bufferView": 0,
   "componentType": 5126,
   "count": 534,
   "type": "VEC3",
   "min": [
    -0.984222412109375,
    -0.5092195272445679,
    -1.2646278142929077
   ],
   "max": [
    1.1123963594436646,
    7.0377349853515625,
    1.1113312244415283
   ]
  },
  {
   "bufferView": 1,
   "componentType": 5126,
   "count": 534,
   "type": "VEC3",
   "min": [
    -0.9998337030410767,
    -0.999692440032959,
    -0.9998970627784729
   ],
   "max": [
    0.9999998807907104,
    0.9992949366569519,
    0.9999857544898987
   ]
  },
  {
   "bufferView": 2,
   "componentType": 5126,
   "count": 534,
   "type": "VEC2"
  },
  {
   "bufferView": 3,
   "componentType": 5125,
   "count": 2190,
   "type": "SCALAR"
  },
  {
   "bufferView": 4,
   "componentType": 5126,
   "count": 801,
   "type": "VEC3",
   "min": [
    -2.113736867904663,
    3.187588691711426,
    -2.2923386096954346
   ],
   "max": [
    1.4976577758789062,
    7.157110214233398,
    1.7034649848937988
   ]
  },
  {
   "bufferView": 5,
   "componentType": 5126,
   "count": 801,
   "type": "VEC3",
   "min": [
    -0.9592055678367615,
    0.21060582995414734,
    -0.9729337096214294
   ],
   "max": [
    0.929811418056488,
    0.964036226272583,
    0.9408218860626221
   ]
  },
  {
   "bufferView": 6,
   "componentType": 5126,
   "count": 801,
   "type": "VEC2"
  },
  {
   "bufferView": 7,
   "componentType": 5125,
   "count": 1386,
   "type": "SCALAR"
  }
 ]
}