{
 "asset": {
  "generator": "trees.py + tree_bark.py (Quaternius Stylized Nature, CC0)",
  "version": "2.0"
 },
 "scene": 0,
 "scenes": [
  {
   "name": "Scene",
   "nodes": [
    0
   ]
  }
 ],
 "nodes": [
  {
   "mesh": 0,
   "name": "TwistedTree_3"
  }
 ],
 "meshes": [
  {
   "name": "TwistedTree_3",
   "primitives": [
    {
     "attributes": {
      "POSITION": 0,
      "NORMAL": 1,
      "TEXCOORD_0": 2
     },
     "indices": 3,
     "material": 0
    },
    {
     "attributes": {
      "POSITION": 4,
      "NORMAL": 5,
      "TEXCOORD_0": 6
     },
     "indices": 7,
     "material": 1
    }
   ]
  }
 ],
 "materials": [
  {
   "doubleSided": false,
   "name": "Bark_TwistedTree",
   "pbrMetallicRoughness": {
    "baseColorTexture": {
     "index": 1
    },
    "metallicFactor": 0
   },
   "normalTexture": {
    "index": 0
   }
  },
  {
   "alphaCutoff": 0.20000000298023224,
   "alphaMode": "MASK",
   "doubleSided": true,
   "name": "Leaves_TwistedTree",
   "pbrMetallicRoughness": {
    "baseColorTexture": {
     "index": 2
    },
    "metallicFactor": 0
   }
  }
 ],
 "textures": [
  {
   "sampler": 0,
   "source": 0
  },
  {
   "sampler": 0,
   "source": 1
  },
  {
   "sampler": 0,
   "source": 2
  }
 ],
 "images": [
  {
   "mimeType": "image/png",
   "name": "Bark_TwistedTree_Normal",
   "uri": "Bark_TwistedTree_Normal.png"
  },
  {
   "mimeType": "image/png",
   "name": "Bark_TwistedTree",
   "uri": "Bark_TwistedTree.png"
  },
  {
   "mimeType": "image/png",
   "name": "Leaves_TwistedTree_C",
   "uri": "Leaves_TwistedTree_C.png"
  }
 ],
 "samplers": [
  {
   "magFilter": 9729,
   "minFilter": 9987
  }
 ],
 "buffers": [
  {
   "byteLength": 305776,
   "uri": "TwistedTree_3.bin"
  }
 ],
 "bufferViews": [
  {
   "buffer": 0,
   "byteOffset": 0,
   "byteLength": 24576,
   "target": 34962
  },
  {
   "buffer": 0,
   "byteOffset": 24576,
   "byteLength": 24576,
   "target": 34962
  },
  {
   "buffer": 0,
   "byteOffset": 49152,
   "byteLength": 16384,
   "target": 34962
  },
  {
   "buffer": 0,
   "byteOffset": 65536,
   "byteLength": 35040,
   "target": 34963
  },
  {
   "buffer": 0,
   "byteOffset": 100576,
   "byteLength": 64800,
   "target": 34962
  },
  {
   "buffer": 0,
   "byteOffset": 165376,
   "byteLength": 64800,
   "target": 34962
  },
  {
   "buffer": 0,
   "byteOffset": 230176,
   "byteLength": 43200,
   "target": 34962
  },
  {
   "buffer": 0,
   "byteOffset": 273376,
   "byteLength": 32400,
   "target": 34963
  }
 ],
 "accessors": [
  {
   "bufferView": 0,
   "componentType": 5126,
   "count": 2048,
   "type": "VEC3",
   "min": [
    -3.0038986206054688,
    -0.5173235535621643,
    -5.3185272216796875
   ],
   "max": [
    5.453563690185547,
    14.775458335876465,
    3.5959386825561523
   ]
  },
  {
   "bufferView": 1,
   "componentType": 5126,
   "count": 2048,
   "type": "VEC3",
   "min": [
    -0.9999876618385315,
    -0.9753028154373169,
    -0.9996849298477173
   ],
   "max": [
    0.9999745488166809,
    0.9825876355171204,
    0.9974266290664673
   ]
  },
  {
   "bufferView": 2,
   "componentType": 5126,
   "count": 2048,
   "type": "VEC2"
  },
  {
   "bufferView": 3,
   "componentType": 5125,
   "count": 8760,
   "type": "SCALAR"
  },
  {
   "bufferView": 4,
   "componentType": 5126,
   "count": 5400,
   "type": "VEC3",
   "min": [
    -4.49001932144165,
    1.901405930519104,
    -6.520090103149414
   ],
   "max": [
    6.867476463317871,
    15.871066093444824,
    4.985528945922852
   ]
  },
  {
   "bufferView": 5,
   "componentType": 5126,
   "count": 5400,
   "type": "VEC3",
   "min": [
    -0.9983697533607483,
    -0.7468477487564087,
    -0.9975281953811646
   ],
   "max": [
    0.99823397397995,
    0.9991884231567383,
    0.9960871934890747
   ]
  },
  {
   "bufferView": 6,
   "componentType": 5126,
   "count": 5400,
   "type": "VEC2"
  },
  {
   "bufferView": 7,
   "componentType": 5125,
   "count": 8100,
   "type": "SCALAR"
  }
 ]
}